Coordinates
version=1
nRows=27
nColumns=26
inDegrees=yes

Units are S.I. units (second, meters, Newtons, ...)
Angles are in degrees.

endheader
time	pelvis_tilt	pelvis_list	pelvis_rotation	pelvis_tx	pelvis_ty	pelvis_tz	hip_flexion_r	hip_adduction_r	hip_rotation_r	knee_angle_r	knee_angle_r_beta	ankle_angle_r	subtalar_angle_r	mtp_angle_r	hip_flexion_l	hip_adduction_l	hip_rotation_l	knee_angle_l	knee_angle_l_beta	ankle_angle_l	subtalar_angle_l	mtp_angle_l	lumbar_extension	lumbar_bending	lumbar_rotation
     39.38423775	    -18.90404186	     -0.16605432	     -0.05332641	      0.28715957	      1.03739224	      0.19113143	     47.93904218	      2.58528035	      3.68097804	     54.53495178	     54.53495178	     -0.93485976	    -15.94910445	      0.00000000	      5.41082748	      2.24970738	     -2.28806217	     16.44970935	     16.44970935	     -8.41159901	     -7.96578342	      0.00000000	      4.79827309	      0.67556225	    -12.62600323
     39.39423775	    -18.81072337	     -0.05077777	     -0.44032709	      0.28959334	      1.04394524	      0.19106626	     46.70622844	      2.45277236	      3.09308656	     47.58988931	     47.58988931	     -0.76554853	    -15.07770879	      0.00000000	      2.85606744	      2.29066630	     -3.24509026	     13.70234770	     13.70234770	    -12.60701308	     -7.30003758	      0.00000000	      4.95920206	      0.80991465	    -12.65724920
     39.40423775	    -18.97271177	      0.42147681	     -0.64260191	      0.29192616	      1.04911357	      0.19072020	     45.64682422	      1.90787737	      2.49958768	     40.63913414	     40.63913414	     -0.31154173	    -13.47359432	      0.00000000	      0.94776014	      2.76973422	     -4.07332101	     11.67290084	     11.67290084	    -15.74265329	     -6.66539506	      0.00000000	      5.45461106	      0.49267468	    -12.89949749
     39.41423775	    -18.61989338	      0.95804000	     -0.67987733	      0.29439275	      1.05378173	      0.19026777	     43.91531634	      1.26699474	      1.84371180	     33.74881791	     33.74881791	      0.41245566	    -11.29151636	      0.00000000	     -1.19086766	      3.40610731	     -4.36489657	     10.40582672	     10.40582672	    -18.11845714	     -6.80044843	      0.00000000	      5.31407894	      0.04609495	    -13.11478590
     39.42423775	    -18.68180676	      1.55313183	     -0.63903120	      0.29624612	      1.05649811	      0.19012581	     42.72749052	      0.65606183	      1.24616632	     27.35155298	     27.35155298	      1.21164810	     -8.82464886	      0.00000000	     -2.28888639	      4.03815115	     -4.81143148	     10.54436566	     10.54436566	    -19.01230609	     -7.09113414	      0.00000000	      5.64323942	     -0.53798657	    -13.42300668
     39.43423775	    -18.36317322	      2.07344806	     -0.61250505	      0.29793456	      1.05837819	      0.19009183	     41.29255100	      0.08606409	      0.20562588	     21.75682442	     21.75682442	      2.47809936	     -5.63933134	      0.00000000	     -3.44957288	      4.60122818	     -4.82349150	     11.64306844	     11.64306844	    -18.60314719	     -7.73186958	      0.00000000	      5.48021215	     -1.04661129	    -13.47286911
     39.44423775	    -18.18079015	      2.49765235	     -0.78357160	      0.29908903	      1.05899410	      0.19051806	     40.22844790	     -0.25088452	     -1.07663818	     17.18376806	     17.18376806	      4.15293518	     -2.13783591	      0.00000000	     -4.07248133	      5.06662601	     -4.57996097	     13.62161746	     13.62161746	    -17.81241076	     -8.80343093	      0.00000000	      5.43450349	     -1.41789866	    -13.23027069
     39.45423775	    -17.85972315	      2.82946629	     -1.10406925	      0.29993252	      1.05881010	      0.19138599	     39.27443033	     -0.40712637	     -2.54576931	     13.81069608	     13.81069608	      6.01237305	      1.51801244	      0.00000000	     -4.55486444	      5.46908762	     -3.90936103	     16.15162248	     16.15162248	    -17.42358460	    -10.13972149	      0.00000000	      5.18517433	     -1.68615737	    -12.77509170
     39.46423775	    -17.65180231	      3.07397822	     -1.54147570	      0.30012693	      1.05768966	      0.19258867	     38.57343923	     -0.24140376	     -2.99875391	     11.34102703	     11.34102703	      6.65749186	      3.23981879	      0.00000000	     -4.56743339	      5.82824047	     -3.00790157	     19.27015126	     19.27015126	    -17.15514287	    -11.58244259	      0.00000000	      5.00807300	     -1.86284267	    -12.13904521
     39.47423775	    -17.40142264	      3.18935573	     -1.68639122	      0.29985885	      1.05604730	      0.19318336	     38.10185530	     -0.21137802	     -4.16807947	     10.18905713	     10.18905713	      7.49031882	      4.71698137	      0.00000000	     -4.28066044	      6.11005048	     -1.55091212	     22.92518106	     22.92518106	    -16.74168364	    -13.01861457	      0.00000000	      4.68360078	     -1.87565987	    -11.85240375
     39.48423775	    -17.10497867	      3.31492759	     -1.87031469	      0.29931924	      1.05366467	      0.19360370	     37.67075611	     -0.10942762	     -4.72740196	      9.91604301	      9.91604301	      8.02206215	      4.62140874	      0.00000000	     -3.72093748	      6.46916913	     -0.22176468	     27.02990356	     27.02990356	    -16.42200980	    -14.49361923	      0.00000000	      4.28454897	     -1.88634064	    -11.45676953
     39.49423775	    -16.77944602	      3.52618824	     -1.96969007	      0.29862605	      1.05036945	      0.19344513	     37.34586029	     -0.16919791	     -4.77648000	     10.61648003	     10.61648003	      8.48523456	      3.73462889	      0.00000000	     -2.88604423	      6.99495987	      1.04851008	     31.55901301	     31.55901301	    -16.14816653	    -15.80951402	      0.00000000	      3.85529382	     -1.94911961	    -11.16648148
     39.50423775	    -16.30272290	      3.69539672	     -2.14496150	      0.29785747	      1.04628498	      0.19306364	     36.82244405	     -0.16241472	     -3.97355060	     11.86440020	     11.86440020	      8.78671999	      2.43803408	      0.00000000	     -1.93775580	      7.50289138	      1.91231125	     36.40033742	     36.40033742	    -16.01528408	    -16.96209341	      0.00000000	      3.24072195	     -1.92432994	    -10.80682341
     39.51423775	    -15.63665404	      3.62551430	     -2.34993825	      0.29710117	      1.04147015	      0.19276047	     35.96149422	      0.04136360	     -2.73759120	     13.41490769	     13.41490769	      9.01022010	      1.58877998	      0.00000000	     -0.96631704	      7.67000735	      2.26920553	     41.49161697	     41.49161697	    -15.86790445	    -17.94956817	      0.00000000	      2.39742206	     -1.64479679	    -10.41945070
     39.52423775	    -14.93114706	      3.39238100	     -2.55268099	      0.29622255	      1.03581459	      0.19254783	     35.02460337	      0.37871414	     -1.39130408	     15.36094343	     15.36094343	      9.06535673	      0.94609955	      0.00000000	      0.14185681	      7.52357847	      2.20090867	     46.70478506	     46.70478506	    -15.59672564	    -18.75461565	      0.00000000	      1.46884391	     -1.20193089	    -10.00474148
     39.53423775	    -14.35449879	      2.89727546	     -2.64610183	      0.29494334	      1.02926456	      0.19250782	     34.44957642	      0.88551107	     -0.79090892	     18.00635655	     18.00635655	      8.40070996	      0.24413844	      0.00000000	      1.55634806	      6.90508305	      1.85316788	     52.02146658	     52.02146658	    -15.12256140	    -19.51014430	      0.00000000	      0.62128327	     -0.50536337	     -9.61026011
     39.54423775	    -13.91605353	      2.21315521	     -2.70404436	      0.29318172	      1.02181231	      0.19253298	     34.21679353	      1.56033508	     -0.89398517	     20.83795823	     20.83795823	      6.49853029	     -0.86006164	      0.00000000	      3.23204697	      5.94201567	      1.36327722	     57.29786590	     57.29786590	    -14.57712801	    -20.46067025	      0.00000000	     -0.13254479	      0.42307423	     -9.07432612
     39.55423775	    -13.92735310	      1.39561095	     -2.74889101	      0.29029600	      1.01324717	      0.19309264	     34.78874040	      2.49624858	     -0.88132645	     23.98450604	     23.98450604	      4.27352356	     -3.09391157	      0.00000000	      5.60858773	      4.66361874	      0.86848790	     62.67312799	     62.67312799	    -13.74957547	    -21.39319206	      0.00000000	     -0.50416552	      1.40263559	     -8.42349840
     39.56423775	    -14.07262140	      0.42271811	     -2.84179386	      0.28656302	      1.00407833	      0.19400018	     36.01472400	      3.65739602	     -0.77641758	     28.30860141	     28.30860141	      4.49925683	     -5.26478930	      0.00000000	      8.28670155	      3.15220487	      0.49554329	     67.98369582	     67.98369582	    -13.05546973	    -22.58892848	      0.00000000	     -0.82377214	      2.49673856	     -7.55604079
     39.57423775	    -14.20845691	     -0.28499946	     -2.83545291	      0.28246350	      0.99455552	      0.19453529	     37.58036202	      4.50200208	     -0.78124738	     33.74566867	     33.74566867	      6.95106907	     -6.87251447	      0.00000000	     11.07381295	      1.99120256	      0.43904166	     73.05873184	     73.05873184	    -12.17618951	    -23.62412035	      0.00000000	     -1.19721279	      3.29219111	     -6.63347389
     39.58423775	    -14.09676468	     -0.69604896	     -2.82179523	      0.27859339	      0.98556810	      0.19468353	     38.56269828	      5.05696987	     -0.56366040	     38.67964424	     38.67964424	      9.27763948	     -8.43017105	      0.00000000	     13.62500657	      1.28445642	      0.57856164	     77.67945407	     77.67945407	    -11.17811984	    -24.44994063	      0.00000000	     -1.83764571	      3.78053772	     -5.44447997
     39.59423775	    -14.17589146	     -1.06592871	     -2.70939777	      0.27464280	      0.97714996	      0.19506735	     39.07331146	      5.59187830	     -0.15331681	     42.40604568	     42.40604568	     11.41288689	     -9.65681407	      0.00000000	     16.47125304	      0.69321288	      1.04547287	     81.91080531	     81.91080531	    -10.09260916	    -24.59321809	      0.00000000	     -2.22246454	      4.17062351	     -4.33357661
     39.60423775	    -14.26346075	     -1.45873117	     -2.49072043	      0.27075667	      0.96973861	      0.19551075	     38.94906115	      5.99377959	     -0.13427746	     45.12284783	     45.12284783	     14.02693173	    -10.01666067	      0.00000000	     19.43378246	      0.09206120	      1.67306155	     85.74562921	     85.74562921	     -9.00839744	    -24.38952195	      0.00000000	     -2.57547877	      4.55784418	     -3.18256707
     39.61423775	    -14.58302291	     -1.98889725	     -2.18828411	      0.26681207	      0.96324881	      0.19581790	     38.55169285	      6.42087412	     -0.40791562	     46.96146821	     46.96146821	     16.67928453	     -9.83584093	      0.00000000	     22.78491544	     -0.63389825	      2.50350037	     89.19243771	     89.19243771	     -7.90591763	    -23.67964144	      0.00000000	     -2.61747644	      5.13592343	     -2.14252803
     39.62423775	    -14.98091263	     -2.53797473	     -1.70222057	      0.26306293	      0.95798220	      0.19576821	     37.93229101	      6.71328420	     -0.92949054	     48.24288415	     48.24288415	     18.98053666	     -9.61239854	      0.00000000	     26.29410352	     -1.18869490	      3.66150759	     92.12653654	     92.12653654	     -6.70700148	    -22.43871608	      0.00000000	     -2.51635435	      5.72927372	     -1.45943118
     39.63423775	    -15.44769604	     -2.83712625	     -1.12900002	      0.25973053	      0.95391685	      0.19537524	     37.20376872	      6.73861821	     -1.36829811	     49.21341903	     49.21341903	     20.84622643	     -9.53790382	      0.00000000	     29.83976677	     -1.25970073	      4.87766069	     94.40093783	     94.40093783	     -5.39321873	    -20.75974494	      0.00000000	     -2.21930562	      6.00525363	     -1.12943485
     39.64423775	    -15.82838224	     -2.92669186	     -0.54891183	      0.25709717	      0.95144878	      0.19487083	     36.02836934	      6.56975509	     -1.68329034	     49.64097475	     49.64097475	     22.49665231	     -9.34083173	      0.00000000	     33.15412667	     -1.01294456	      5.90587886	     95.91544460	     95.91544460	     -4.21296954	    -19.21011340	      0.00000000	     -1.88009826	      5.98883204	     -0.69498934
